# xmcd
#
# Track frame offsets:
#	150
#	15198
#	28601
#	38919
#	54173
#	75038
#	90993
#	106386
#	120592
#	125569
#	136608
#	158284
#
# Disc length: 2282 seconds
#
# Revision: 1
# Processed by: cddbd v1.5.2PL0 Copyright (c) Steve Scherf et al.
# Submitted via: audiograbber 1.83.01
#
DISCID=7108e80c
DTITLE=Dan Livingstone - Dan LivingStone
DYEAR=2000
DGENRE=Blues
TTITLE0=Preachin' Blues
TTITLE1=Ain't No Tellin'
TTITLE2=You Say You Love Me
TTITLE3=Baby Let My Lay It On You
TTITLE4=Mood Swing
TTITLE5=C.C. Rider
TTITLE6=How Long?
TTITLE7=Shake Shake Mama
TTITLE8=Philly Rag
TTITLE9=Far From Here
TTITLE10=Done Left Here
TTITLE11=The Last Steam Engine Train
EXTD=
EXTT0=R. Johnson
EXTT1=J. Hurt
EXTT2=D. Linvingstone
EXTT3=G. Davis
EXTT4=D. Livingstone
EXTT5=Trad.
EXTT6=L. Carr
EXTT7=M. Lipscomb
EXTT8=D. Hicks
EXTT9=D. Livingstone
EXTT10=F. McDowell
EXTT11=J. Fahey
PLAYORDER=
